<?xml version="1.0" standalone="no"?><!DOCTYPE svg PUBLIC "-//W3C//DTD SVG 1.1//EN" "http://www.w3.org/Graphics/SVG/1.1/DTD/svg11.dtd"><svg t="1712813722870" class="icon" viewBox="0 0 1024 1024" version="1.1" xmlns="http://www.w3.org/2000/svg" p-id="4795" xmlns:xlink="http://www.w3.org/1999/xlink" width="200" height="200"><path d="M173.568 200.704h676.864c24.576 0 44.544 19.968 44.544 44.544s-19.968 44.544-44.544 44.544H173.568c-24.576 0-44.544-19.968-44.544-44.544 0-24.576 19.968-44.544 44.544-44.544z" fill="#333333" p-id="4796"></path><path d="M850.432 290.816H173.568c-25.088 0-45.568-20.48-45.568-45.568s20.48-45.568 45.568-45.568h676.864c25.088 0 45.568 20.48 45.568 45.568s-20.48 45.568-45.568 45.568zM173.568 202.24c-24.064 0-43.008 19.456-43.008 43.008s19.456 43.008 43.008 43.008h676.864c24.064 0 43.008-19.456 43.008-43.008s-19.456-43.008-43.008-43.008H173.568z m0 265.216h676.864c24.576 0 44.544 19.968 44.544 44.544s-19.968 44.544-44.544 44.544H173.568c-24.576 0-44.544-19.968-44.544-44.544 0-24.576 19.968-44.544 44.544-44.544z" fill="#333333" p-id="4797"></path><path d="M850.432 557.568H173.568c-25.088 0-45.568-20.48-45.568-45.568s20.48-45.568 45.568-45.568h676.864c25.088 0 45.568 20.48 45.568 45.568s-20.48 45.568-45.568 45.568zM173.568 468.48c-24.064 0-43.008 19.456-43.008 43.008s19.456 43.008 43.008 43.008h676.864c24.064 0 43.008-19.456 43.008-43.008s-19.456-43.008-43.008-43.008H173.568zM173.568 734.208h676.864c24.576 0 44.544 19.968 44.544 44.544 0 24.576-19.968 44.544-44.544 44.544H173.568c-24.576 0-44.544-19.968-44.544-44.544 0-24.576 19.968-44.544 44.544-44.544z" fill="#333333" p-id="4798"></path><path d="M850.432 824.32H173.568c-25.088 0-45.568-20.48-45.568-45.568s20.48-45.568 45.568-45.568h676.864c25.088 0 45.568 20.48 45.568 45.568s-20.48 45.568-45.568 45.568zM173.568 735.232c-24.064 0-43.008 19.456-43.008 43.008 0 24.064 19.456 43.008 43.008 43.008h676.864c24.064 0 43.008-19.456 43.008-43.008 0-24.064-19.456-43.008-43.008-43.008H173.568z" fill="#333333" p-id="4799"></path></svg>