<?xml version="1.0" standalone="no"?><!DOCTYPE svg PUBLIC "-//W3C//DTD SVG 1.1//EN" "http://www.w3.org/Graphics/SVG/1.1/DTD/svg11.dtd"><svg t="1712795199764" class="icon" viewBox="0 0 1024 1024" version="1.1" xmlns="http://www.w3.org/2000/svg" p-id="4324" xmlns:xlink="http://www.w3.org/1999/xlink" width="200" height="200"><path d="M913.6 548.4c-23.4-32.7-87.2-74.8-157.3-101.2-32.7-12.5-51.4-46.7-43.6-81 16.4-76.3 37.4-151.1 65.4-210.3 27.3-58.4-17.1-34.3-55.3 0-51.4 45.2-88 118.4-109.8 196.3-9.3 33.5-40.5 55.3-74.8 52.2-7.8-0.8-16.4-1.6-24.1-1.6-33.5-2.3-60.7-27.3-66.2-60-14-89.6-34.3-149.5-71.6-195.5-39.7-49.8-80.2-53.7-70.1-27.3 24.9 64.6 39.7 145.6 45.9 210.3 3.9 37.4-22.6 71.6-60 77.1-148.7 22.6-221.2 92.7-169 85.7 40.5-4.7 95.8-7.8 153.4-6.2 43.6 0.8 77.1 40.5 69.3 84.1-14.8 83.3-42.1 174.4-81 246.1-12.5 23.4 44.4 13.2 77.1-16.4 64.6-58.4 93.5-140.2 105.1-236 4.7-38.9 39.7-67 78.7-63.1h1.6c35.8 3.9 62.3 32.7 64.6 68.5 8.6 167.4 56.9 334.9 140.2 349.7 20.2 3.9-13.2-56.9-31.2-163.5-10.1-55.3-12.5-98.9-13.2-148-0.8-45.2 40.5-80.2 84.9-71.6 85.7 16.4 164.3 44.4 141 11.7z" fill="" p-id="4325"></path></svg>